<svg width="524" height="646" viewBox="0 0 524 646" fill="none" xmlns="http://www.w3.org/2000/svg">
<g filter="url(#filter0_d_2_203)">
<rect x="11" y="13" width="500" height="625" rx="10" fill="black"/>
</g>
<g clip-path="url(#clip0_2_203)">
<rect width="500" height="625" rx="10" fill="#00C6AE"/>
<path d="M325.989 235.623C325.992 235.581 325.996 235.529 326 235.465C326.011 235.295 326.025 235.047 326.04 234.724C326.071 234.08 326.104 233.141 326.117 231.951C326.143 229.569 326.089 226.176 325.766 222.108C325.122 213.98 323.406 203.11 319.101 192.217C314.794 181.318 307.876 170.348 296.806 162.106C285.723 153.855 270.589 148.42 250.002 148.42C227.926 148.42 211.521 153.842 199.359 162.067C187.205 170.287 179.388 181.238 174.371 192.141C169.358 203.036 167.126 213.911 166.145 222.046C165.653 226.118 165.474 229.514 165.418 231.898C165.389 233.091 165.392 234.031 165.402 234.677C165.407 234.999 165.413 235.249 165.419 235.419C165.422 235.504 165.424 235.569 165.426 235.615C165.426 235.615 165.426 235.615 165.426 235.616L165.424 235.655C165.421 235.727 165.417 235.833 165.411 235.971C165.401 236.249 165.386 236.659 165.371 237.192C165.341 238.258 165.308 239.818 165.297 241.8C165.276 245.765 165.344 251.423 165.698 258.21C166.407 271.778 168.264 289.896 172.867 308.036C177.466 326.158 184.834 344.422 196.641 358.178C208.492 371.986 224.791 381.217 247.05 381.217C269.311 381.217 285.448 371.984 297.051 358.166C308.607 344.403 315.636 326.133 319.897 308.01C324.162 289.868 325.681 271.75 326.136 258.182C326.364 251.395 326.326 245.737 326.231 241.772C326.184 239.79 326.122 238.23 326.072 237.164C326.047 236.631 326.024 236.221 326.009 235.944C326.001 235.805 325.994 235.699 325.99 235.627L325.989 235.623Z" fill="#F8D9CB" stroke="#1A1A1A" stroke-width="3"/>
<path fill-rule="evenodd" clip-rule="evenodd" d="M324.461 264.051C324.461 264.051 332.617 252.261 342.292 257.981C351.969 263.697 348.889 284.807 342.292 295.366C335.695 305.921 325.045 311.138 319.157 303.033" fill="#F8D9CB"/>
<path d="M324.461 264.051C324.461 264.051 332.617 252.261 342.292 257.981C351.969 263.697 348.889 284.807 342.292 295.366C335.695 305.921 325.045 311.138 319.157 303.033" stroke="#1A1A1A" stroke-width="3" stroke-linecap="round"/>
<path d="M341.233 271.176C341.233 271.176 330.33 267.539 322.592 283.594" stroke="#1A1A1A" stroke-width="2" stroke-linecap="round" stroke-linejoin="round"/>
<path d="M327.885 275.738C327.885 275.738 339.749 282.086 331.911 291.622" stroke="#1A1A1A" stroke-width="2" stroke-linecap="round" stroke-linejoin="round"/>
<path fill-rule="evenodd" clip-rule="evenodd" d="M167.511 264.051C167.511 264.051 159.355 252.261 149.681 257.981C140.006 263.697 143.084 284.807 149.681 295.366C156.278 305.921 166.928 311.138 172.819 303.033" fill="#F8D9CB"/>
<path d="M167.511 264.051C167.511 264.051 159.355 252.261 149.681 257.981C140.006 263.697 143.084 284.807 149.681 295.366C156.278 305.921 166.928 311.138 172.819 303.033" stroke="#1A1A1A" stroke-width="3" stroke-linecap="round"/>
<path d="M150.74 271.176C150.74 271.176 161.642 267.539 169.383 283.594" stroke="#1A1A1A" stroke-width="2" stroke-linecap="round" stroke-linejoin="round"/>
<path d="M164.089 275.738C164.089 275.738 152.225 282.086 160.063 291.622" stroke="#1A1A1A" stroke-width="2" stroke-linecap="round" stroke-linejoin="round"/>
<path d="M223.257 312.974C223.257 312.974 235.125 321.258 249.503 321.258C263.885 321.258 273.819 312.974 273.819 312.974" stroke="#1A1A1A" stroke-width="3" stroke-linecap="round" stroke-linejoin="round"/>
<path fill-rule="evenodd" clip-rule="evenodd" d="M206.387 181.991C237.834 191.877 231.927 200.988 267.836 205.676C288.015 208.31 318.563 193.504 318.563 193.504C318.563 193.504 324.137 207.539 325.535 221.839C327.622 243.196 325.535 264.818 325.535 264.818L334.229 261.997C334.229 261.997 334.902 254.295 338.757 247.173C343.464 238.476 353.895 232.886 353.895 232.886C353.895 232.886 358.242 223.938 358.242 214.891C358.242 204.247 353.895 193.504 353.895 193.504C353.895 193.504 348.3 186.137 348.3 178.861C348.3 172.815 353.895 160.658 353.895 160.658C353.895 160.658 353.901 141.108 344.507 132.504C331.69 120.763 324.349 119.482 306.222 118.671C277.289 117.375 250.387 128.527 250.387 128.527C250.387 128.527 237.525 115.118 221.781 108.856C208.581 103.606 192.499 105.504 192.499 105.504C192.499 105.504 182.952 106.953 180.37 115.349C177.293 125.352 177.293 145.783 177.293 145.783C177.293 145.783 175.924 149.181 173.022 149.92C167.802 151.249 166.074 148.111 161.051 149.92C151.157 153.481 146.418 153.712 143.187 160.658C139.687 168.182 143.187 181.991 143.187 181.991C143.187 181.991 130.104 191.94 129.275 205.676C128.644 216.124 140.265 230.361 140.265 230.361C140.265 230.361 151.496 240.083 157.052 247.173C164.621 256.833 166.515 263.861 166.515 263.861C166.515 263.861 174.55 247.315 177.293 230.361C179.939 214.01 175.501 208.993 180.37 193.504C183.103 184.809 183.102 187.931 192.499 181.991C197.649 178.736 200.166 180.035 206.387 181.991Z" fill="#272727"/>
<path fill-rule="evenodd" clip-rule="evenodd" d="M193.808 354.82V415.394C193.808 415.394 179.611 439.722 136.034 447.277C136.034 447.277 211.459 518.911 250 518.911C285.635 518.911 362.725 447.277 362.725 447.277C362.725 447.277 303.945 434.274 299.889 415.394V354.82" fill="#F8D9CB"/>
<path d="M193.808 354.82V415.394C193.808 415.394 179.611 439.722 136.034 447.277C136.034 447.277 211.459 518.911 250 518.911C285.635 518.911 362.725 447.277 362.725 447.277C362.725 447.277 303.945 434.274 299.889 415.394V354.82" stroke="#1A1A1A" stroke-width="3" stroke-linecap="round" stroke-linejoin="round"/>
<g clip-path="url(#clip1_2_203)">
<path fill-rule="evenodd" clip-rule="evenodd" d="M183.875 415.504L170.954 423.956L108.777 444.649L92.6025 461.721L70.4009 537.967L59 623.504H441L417.022 489.766L396.974 447.618L322.917 420.692L303.924 417.69L296.349 431.616L276.777 441.373H221.286L183.875 415.504Z" fill="#F3D338"/>
<path fill-rule="evenodd" clip-rule="evenodd" d="M192.914 416.504C192.914 416.504 200.528 429.198 206.342 431.847C221.008 438.53 235.247 439.414 248.855 439.414C262.1 439.414 279.208 435.324 292.366 428.856C294.704 427.707 298.114 426.036 300.901 423.938C302.661 422.612 303.236 416.504 303.236 416.504L315.896 419.439L324 446.202L202.715 495.504L180 428.856C180 428.856 180.545 421.608 182.813 419.439C185.081 417.27 192.914 416.504 192.914 416.504Z" fill="#F7F7F7" stroke="#969AA8" stroke-width="2"/>
<path fill-rule="evenodd" clip-rule="evenodd" d="M186.346 417.504C186.346 417.504 187.207 417.575 187.482 419.694C187.896 422.893 187.695 430.422 190.031 432.599C201.283 443.087 206.81 445.186 231.1 450.089C247.619 453.423 271.274 451.227 283.532 446.007C309.535 434.934 307.622 417.504 307.622 417.504L329 428.162L325.499 507.802C325.499 507.802 200.703 510.504 199.773 510.504C198.843 510.504 173.544 457.287 171.962 454.205C170.379 451.123 164 437.585 164 437.585C164 437.585 164.661 430.605 172.911 423.191C175.747 420.642 186.346 417.504 186.346 417.504Z" fill="#F3D338"/>
<path fill-rule="evenodd" clip-rule="evenodd" d="M172.078 425.504C172.078 425.504 173.829 444.841 194.753 455.409C213.742 464.999 248.329 465.746 248.329 465.746L248.587 470.504C248.587 470.504 210.424 468.506 191.038 457.916C170.78 446.85 172.078 425.504 172.078 425.504Z" fill="#C9AB1A"/>
<path fill-rule="evenodd" clip-rule="evenodd" d="M323.59 421.508C323.59 421.508 322.841 440.911 302.492 452.573C284.024 463.157 249.523 465.735 249.523 465.735L249.512 470.5C249.512 470.5 287.52 466.483 306.332 454.88C325.989 442.756 323.59 421.508 323.59 421.508Z" fill="#C9AB1A"/>
<path d="M59 623.504C59 623.504 74.2641 497.004 92.5611 461.721C99.4871 448.365 119.333 439.513 119.333 439.513L170.816 423.956C170.816 423.956 174.223 418.637 180.138 416.548C186.053 414.459 193 416.548 193 416.548" stroke="#C9AB1A" stroke-width="5" stroke-linecap="round"/>
<path fill-rule="evenodd" clip-rule="evenodd" d="M113.818 512.711C113.818 512.711 120.279 525.501 125.263 543.108C131.587 565.451 130.251 569.713 136.433 592.61C141.104 609.91 146.969 623.504 146.969 623.504H125.263L113.818 512.711Z" fill="#E3C533"/>
<path fill-rule="evenodd" clip-rule="evenodd" d="M88.1043 537.967L105.644 623.504C105.644 623.504 93.4595 603.548 88.1043 573.736C85.7094 560.404 88.1043 537.967 88.1043 537.967Z" fill="#E3C533"/>
<path d="M108.716 492.277C108.716 492.277 111.074 531.466 114.747 560.595C119.348 597.079 125.263 623.504 125.263 623.504" stroke="#C9AB1A" stroke-width="5" stroke-linecap="round"/>
<path d="M441 628.504C441 628.504 425.734 501.673 407.434 466.298C400.507 452.907 399.343 449.513 387.984 443.672C363.724 434.587 323.187 422.978 323.187 422.978C323.187 422.978 319.78 417.645 313.864 415.551C307.948 413.457 301 415.551 301 415.551" stroke="#C9AB1A" stroke-width="5" stroke-linecap="round"/>
<path fill-rule="evenodd" clip-rule="evenodd" d="M376.164 510.074C376.164 510.074 370.922 530.245 365.938 547.898C359.612 570.299 360.949 574.572 354.766 597.53C350.094 614.875 344.228 628.504 344.228 628.504H365.938L376.164 510.074Z" fill="#E3C533"/>
<path fill-rule="evenodd" clip-rule="evenodd" d="M410.426 542.743L392.884 628.504C392.884 628.504 405.07 608.496 410.426 578.606C412.822 565.239 410.426 542.743 410.426 542.743Z" fill="#E3C533"/>
<path d="M382.487 496.933C382.487 496.933 380.128 536.225 376.455 565.43C371.853 602.01 365.938 628.504 365.938 628.504" stroke="#C9AB1A" stroke-width="5" stroke-linecap="round"/>
<path d="M188.082 419.707C188.082 419.707 187.543 427.952 190.549 431.643C200.335 443.659 220.864 450.504 247.834 450.504C276.322 450.504 292.93 443.838 304.66 430.618C307.73 427.158 306.772 418.504 306.772 418.504" stroke="#C9AB1A" stroke-width="3" stroke-linecap="round"/>
<path opacity="0.634897" d="M218.581 529.054L225.541 509.054H222.421V508.294H228.541V509.054H226.661L217.021 536.694H213.661L203.461 509.054H201.621V508.294H214.701V509.054H211.861L218.581 529.054ZM257.324 521.814C257.324 527.307 255.777 531.134 252.684 533.294C249.83 535.294 245.91 536.294 240.924 536.294H229.604V535.534H232.244V509.054H229.604V508.294H241.964C247.084 508.294 250.924 509.347 253.484 511.454C256.044 513.534 257.324 516.987 257.324 521.814ZM240.044 535.534H241.564C244.257 535.534 246.177 534.587 247.324 532.694C248.497 530.774 249.084 527.574 249.084 523.094V520.774C249.084 514.774 247.937 511.16 245.644 509.934C244.55 509.347 243.004 509.054 241.004 509.054H240.044V535.534ZM274.959 508.654C270.826 508.654 268.759 512.64 268.759 520.614V523.774C268.759 527.56 269.306 530.534 270.399 532.694C271.492 534.827 273.106 535.894 275.239 535.894C278.172 535.894 280.866 533.04 283.319 527.334H284.039L283.759 536.254H283.319C283.159 535.96 283.012 535.76 282.879 535.654C282.746 535.52 282.546 535.454 282.279 535.454C282.039 535.454 281.079 535.667 279.399 536.094C277.719 536.494 276.012 536.694 274.279 536.694C269.932 536.694 266.559 535.52 264.159 533.174C261.786 530.827 260.599 527.307 260.599 522.614C260.599 517.894 261.839 514.254 264.319 511.694C266.826 509.134 270.186 507.854 274.399 507.854C276.026 507.854 277.612 508.067 279.159 508.494C280.732 508.894 281.652 509.094 281.919 509.094C282.186 509.094 282.386 509.04 282.519 508.934C282.652 508.8 282.799 508.587 282.959 508.294H283.399L283.719 516.974H282.999C281.799 514.28 280.559 512.227 279.279 510.814C278.026 509.374 276.586 508.654 274.959 508.654Z" fill="white"/>
</g>
<path fill-rule="evenodd" clip-rule="evenodd" d="M235.967 401.974C254.364 412.455 278.154 408.388 290.639 391.29C296.865 382.76 298.609 372.207 298.609 353.749C298.609 353.749 281.322 378.461 251.077 379.716C220.836 380.971 194.978 356.453 194.978 356.453C194.978 356.453 210.635 387.538 235.967 401.974Z" fill="#D0AD9C" fill-opacity="0.7"/>
<path fill-rule="evenodd" clip-rule="evenodd" d="M245.353 256.754C245.353 256.754 255.015 280.235 254.484 286.983C253.954 293.73 245.108 293.823 245.108 293.823L245.353 256.754Z" fill="#C3A394"/>
<path fill-rule="evenodd" clip-rule="evenodd" d="M221.286 252.861C221.286 258.934 217.705 263.861 213.284 263.861C208.866 263.861 205.286 258.934 205.286 252.861C205.286 246.788 208.866 241.861 213.284 241.861C217.705 241.861 221.286 246.788 221.286 252.861Z" fill="#1A1A1A"/>
<path fill-rule="evenodd" clip-rule="evenodd" d="M229.477 218.951L225.962 223.492C225.962 223.492 215.962 221.221 206.84 221.221C197.718 221.221 187.84 223.492 187.84 223.492C187.84 223.492 188.917 221.13 191.346 218.951C193.774 216.772 197.675 214.891 200.468 214.891C203.26 214.891 206.84 214.891 214.063 215.681C221.286 216.471 229.477 218.951 229.477 218.951Z" fill="#1A1A1A"/>
<path fill-rule="evenodd" clip-rule="evenodd" d="M272.031 252.861C272.031 258.934 275.612 263.861 280.033 263.861C284.451 263.861 288.031 258.934 288.031 252.861C288.031 246.788 284.451 241.861 280.033 241.861C275.612 241.861 272.031 246.788 272.031 252.861Z" fill="#1A1A1A"/>
<path fill-rule="evenodd" clip-rule="evenodd" d="M263.84 218.951L267.355 223.492C267.355 223.492 277.355 221.221 286.477 221.221C295.599 221.221 305.477 223.492 305.477 223.492C305.477 223.492 304.4 221.13 301.971 218.951C299.543 216.772 295.642 214.891 292.849 214.891C290.057 214.891 286.477 214.891 279.254 215.681C272.031 216.471 263.84 218.951 263.84 218.951Z" fill="#1A1A1A"/>
<path fill-rule="evenodd" clip-rule="evenodd" d="M237.245 256.657C237.245 273.387 223.68 286.952 206.95 286.952C190.219 286.952 176.654 273.387 176.654 256.657C176.654 239.926 190.219 226.361 206.95 226.361C223.68 226.361 237.245 239.926 237.245 256.657Z" stroke="#1A1A1A" stroke-width="2" stroke-linecap="round" stroke-linejoin="round"/>
<path fill-rule="evenodd" clip-rule="evenodd" d="M311.67 256.657C311.67 273.387 298.105 286.952 281.374 286.952C264.641 286.952 251.079 273.387 251.079 256.657C251.079 239.926 264.641 226.361 281.374 226.361C298.105 226.361 311.67 239.926 311.67 256.657Z" stroke="#1A1A1A" stroke-width="2" stroke-linecap="round" stroke-linejoin="round"/>
<path d="M237.245 256.657C237.245 256.657 244.423 249.959 251.08 256.657" stroke="#1A1A1A" stroke-width="2" stroke-linecap="round" stroke-linejoin="round"/>
<path d="M177.799 264.818L167.112 256.416" stroke="#1A1A1A" stroke-width="2" stroke-linecap="round" stroke-linejoin="round"/>
<path d="M310.584 264.818L324.808 253.635" stroke="#1A1A1A" stroke-width="2" stroke-linecap="round" stroke-linejoin="round"/>
</g>
<rect x="1" y="1" width="498" height="623" rx="9" stroke="black" stroke-width="2"/>
<defs>
<filter id="filter0_d_2_203" x="11" y="13" width="513" height="633" filterUnits="userSpaceOnUse" color-interpolation-filters="sRGB">
<feFlood flood-opacity="0" result="BackgroundImageFix"/>
<feColorMatrix in="SourceAlpha" type="matrix" values="0 0 0 0 0 0 0 0 0 0 0 0 0 0 0 0 0 0 127 0" result="hardAlpha"/>
<feOffset dx="9" dy="4"/>
<feGaussianBlur stdDeviation="2"/>
<feComposite in2="hardAlpha" operator="out"/>
<feColorMatrix type="matrix" values="0 0 0 0 0 0 0 0 0 0 0 0 0 0 0 0 0 0 0.25 0"/>
<feBlend mode="normal" in2="BackgroundImageFix" result="effect1_dropShadow_2_203"/>
<feBlend mode="normal" in="SourceGraphic" in2="effect1_dropShadow_2_203" result="shape"/>
</filter>
<clipPath id="clip0_2_203">
<rect width="500" height="625" rx="10" fill="white"/>
</clipPath>
<clipPath id="clip1_2_203">
<rect width="382" height="214" fill="white" transform="translate(59 414.504)"/>
</clipPath>
</defs>
</svg>
