<svg width="71" height="70" viewBox="0 0 71 70" fill="none" xmlns="http://www.w3.org/2000/svg">
<path d="M37.3292 68.2781C55.127 68.2781 69.6583 54.1697 69.6583 36.639C69.6583 19.1086 55.127 5 37.3292 5C19.5315 5 5 19.1086 5 36.639C5 54.1697 19.5315 68.2781 37.3292 68.2781Z" fill="white" stroke="black" stroke-width="1.5625"/>
<path d="M33.3292 64.2781C51.127 64.2781 65.6583 50.1697 65.6583 32.639C65.6583 15.1086 51.127 1 33.3292 1C15.5315 1 1 15.1086 1 32.639C1 50.1697 15.5315 64.2781 33.3292 64.2781Z" fill="#FFDD55" stroke="black" stroke-width="1.5625"/>
<mask id="path-3-outside-1_2_320" maskUnits="userSpaceOnUse" x="17" y="15" width="38" height="36" fill="black">
<rect fill="white" x="17" y="15" width="38" height="36"/>
<path d="M27.3091 42.56L26.7811 31.904L41.2291 16.4H51.6931L37.2931 32L32.0131 37.52L27.3091 42.56ZM18.8131 50V16.4H28.2211V50H18.8131ZM41.3731 50L30.4291 36.128L36.6211 29.504L52.4131 50H41.3731Z"/>
</mask>
<path d="M27.3091 42.56L26.7811 31.904L41.2291 16.4H51.6931L37.2931 32L32.0131 37.52L27.3091 42.56ZM18.8131 50V16.4H28.2211V50H18.8131ZM41.3731 50L30.4291 36.128L36.6211 29.504L52.4131 50H41.3731Z" fill="#18191F"/>
<path d="M27.3091 42.56L26.3104 42.6095L26.4273 44.9704L28.0402 43.2423L27.3091 42.56ZM26.7811 31.904L26.0495 31.2222L25.7614 31.5314L25.7824 31.9535L26.7811 31.904ZM41.2291 16.4V15.4H40.7941L40.4975 15.7182L41.2291 16.4ZM51.6931 16.4L52.4279 17.0783L53.9771 15.4H51.6931V16.4ZM37.2931 32L38.0158 32.6912L38.0219 32.6848L38.0279 32.6783L37.2931 32ZM32.0131 37.52L31.2904 36.8287L31.2821 36.8377L32.0131 37.52ZM18.8131 50H17.8131V51H18.8131V50ZM18.8131 16.4V15.4H17.8131V16.4H18.8131ZM28.2211 16.4H29.2211V15.4H28.2211V16.4ZM28.2211 50V51H29.2211V50H28.2211ZM41.3731 50L40.588 50.6194L40.8883 51H41.3731V50ZM30.4291 36.128L29.6986 35.4451L29.1118 36.0728L29.644 36.7474L30.4291 36.128ZM36.6211 29.504L37.4133 28.8937L36.6946 27.961L35.8906 28.8211L36.6211 29.504ZM52.4131 50V51H54.446L53.2053 49.3897L52.4131 50ZM28.3079 42.5105L27.7799 31.8545L25.7824 31.9535L26.3104 42.6095L28.3079 42.5105ZM27.5127 32.5858L41.9607 17.0818L40.4975 15.7182L26.0495 31.2222L27.5127 32.5858ZM41.2291 17.4H51.6931V15.4H41.2291V17.4ZM50.9583 15.7217L36.5583 31.3217L38.0279 32.6783L52.4279 17.0783L50.9583 15.7217ZM36.5705 31.3088L31.2905 36.8288L32.7358 38.2112L38.0158 32.6912L36.5705 31.3088ZM31.2821 36.8377L26.5781 41.8777L28.0402 43.2423L32.7442 38.2023L31.2821 36.8377ZM19.8131 50V16.4H17.8131V50H19.8131ZM18.8131 17.4H28.2211V15.4H18.8131V17.4ZM27.2211 16.4V50H29.2211V16.4H27.2211ZM28.2211 49H18.8131V51H28.2211V49ZM42.1582 49.3806L31.2142 35.5086L29.644 36.7474L40.588 50.6194L42.1582 49.3806ZM31.1597 36.8109L37.3517 30.1869L35.8906 28.8211L29.6986 35.4451L31.1597 36.8109ZM35.829 30.1143L51.621 50.6103L53.2053 49.3897L37.4133 28.8937L35.829 30.1143ZM52.4131 49H41.3731V51H52.4131V49Z" fill="black" mask="url(#path-3-outside-1_2_320)"/>
</svg>
